<?xml version="1.0" encoding="utf-8"?>
<!-- Generator: Adobe Illustrator 27.5.0, SVG Export Plug-In . SVG Version: 6.00 Build 0)  -->
<svg version="1.1" id="Capa_1" xmlns="http://www.w3.org/2000/svg" xmlns:xlink="http://www.w3.org/1999/xlink" x="0px" y="0px"
	 viewBox="0 0 2279 1975" style="enable-background:new 0 0 2279 1975;" xml:space="preserve">
<path style="fill:#1B0D1B;" d="M2098.038,1152.759c-8.793-42.23-58.667-81.709-139.909-115.857
	c-5.62-2.363-11.43-4.693-17.345-7.004c-1.835-0.717-3.729-1.424-5.593-2.136c-4.209-1.609-8.475-3.207-12.827-4.789
	c-2.164-0.787-4.348-1.571-6.547-2.351c-4.407-1.564-8.894-3.112-13.439-4.649c-2.036-0.689-4.047-1.384-6.11-2.067
	c-6.427-2.128-12.955-4.235-19.641-6.308c-0.166-0.052-0.323-0.104-0.489-0.155c-6.857-2.123-13.884-4.209-21.007-6.273
	c-2.215-0.641-4.483-1.271-6.722-1.907c-5.041-1.431-10.132-2.85-15.3-4.251c-2.606-0.706-5.231-1.409-7.869-2.108
	c-5.159-1.367-10.387-2.715-15.666-4.053c-2.478-0.628-4.935-1.262-7.44-1.883c-7.149-1.773-14.391-3.521-21.748-5.239
	c-0.604-0.141-1.188-0.288-1.794-0.429c-7.91-1.838-15.968-3.635-24.113-5.407c-2.661-0.579-5.374-1.144-8.061-1.717
	c-5.648-1.203-11.336-2.393-17.091-3.565c-3.136-0.638-6.291-1.271-9.457-1.899c-5.634-1.118-11.325-2.218-17.056-3.306
	c-3.048-0.578-6.079-1.164-9.153-1.733c-7.404-1.372-14.891-2.716-22.449-4.037c-1.374-0.24-2.716-0.491-4.095-0.729
	c-7.865-1.36-15.81-2.691-23.836-3.994c-0.018-0.065-0.036-0.126-0.055-0.191c-0.628-2.182-1.25-4.322-1.862-6.407
	c-0.017-0.056-0.033-0.111-0.049-0.167c-4.44-15.118-8.386-27.465-10.286-33.245c-0.34-1.06-0.628-1.91-0.822-2.507
	c-55.109-163.622-184.171-307.872-348.639-369.057c-177.724-66.112-367.835-13.851-505.742,111.672
	c-53.25,48.457-97.453,106.956-128.597,171.917c-12.88,26.862-23.177,54.917-30.714,83.702c0,0-0.001,0-0.001-0.001
	c-1.323,5.001-2.522,10.031-3.668,15.071c-0.621,2.735-1.249,5.469-1.822,8.216c-0.533,2.549-1.466,6.941-2.598,12.48
	c-0.15,0.732-0.303,1.494-0.46,2.267c-0.114,0.563-0.219,1.065-0.335,1.648c-290.815,43.653-485.859,123.983-485.859,215.865
	c0,84.307,164.151,158.891,415.835,204.339c169.624,45.608,393.803,77.856,640.427,87.097
	c535.405,20.066,973.63-75.833,978.817-214.198C2158.013,1212.322,2137.083,1181.736,2098.038,1152.759z"/>
<path style="fill:#FCBF1F;" d="M2098.038,1152.759c-8.793-42.23-58.667-81.709-139.909-115.857
	c-5.62-2.363-11.43-4.693-17.345-7.004c-1.835-0.717-3.729-1.424-5.593-2.136c-4.209-1.609-8.475-3.207-12.827-4.789
	c-2.164-0.787-4.348-1.571-6.547-2.351c-4.407-1.564-8.894-3.112-13.439-4.649c-2.036-0.689-4.047-1.384-6.11-2.067
	c-6.427-2.128-12.955-4.235-19.641-6.308c-0.166-0.052-0.323-0.104-0.489-0.155c-6.857-2.123-13.884-4.209-21.007-6.273
	c-2.215-0.641-4.483-1.271-6.722-1.907c-5.041-1.431-10.132-2.85-15.3-4.251c-2.606-0.706-5.231-1.409-7.869-2.108
	c-5.159-1.367-10.387-2.715-15.666-4.053c-2.478-0.628-4.935-1.262-7.44-1.883c-7.149-1.773-14.391-3.521-21.748-5.239
	c-0.604-0.141-1.188-0.288-1.794-0.429c-7.91-1.838-15.968-3.635-24.113-5.407c-2.661-0.579-5.374-1.144-8.061-1.717
	c-5.648-1.203-11.336-2.393-17.091-3.565c-3.136-0.638-6.291-1.271-9.457-1.899c-5.634-1.118-11.325-2.218-17.056-3.306
	c-3.048-0.578-6.079-1.164-9.153-1.733c-7.404-1.372-14.891-2.716-22.449-4.037c-1.374-0.24-2.716-0.491-4.095-0.729
	c-7.865-1.36-15.81-2.691-23.836-3.994c-0.018-0.065-0.036-0.126-0.055-0.191c-0.628-2.182-1.25-4.322-1.862-6.407
	c-0.017-0.056-0.033-0.111-0.049-0.167c-4.44-15.118-8.386-27.465-10.286-33.245c-0.34-1.06-0.628-1.91-0.822-2.507
	c-55.109-163.622-184.171-307.872-348.639-369.057c-177.724-66.112-367.835-13.851-505.742,111.672
	c-53.25,48.457-97.453,106.956-128.597,171.917c-12.88,26.862-23.177,54.917-30.714,83.702c0,0-0.001,0-0.001-0.001
	c-1.323,5.001-2.522,10.031-3.668,15.071c-0.621,2.735-1.249,5.469-1.822,8.216c-0.533,2.549-1.466,6.941-2.598,12.48
	c-0.15,0.732-0.303,1.494-0.46,2.267c-0.114,0.563-0.219,1.065-0.335,1.648c-290.815,43.653-485.859,123.983-485.859,215.865
	c0,84.307,164.151,158.891,415.835,204.339c161.671,29.193,359.459,46.366,573.067,46.366
	c546.166,0,988.907-112.243,988.907-250.705C2099.579,1161.672,2098.963,1157.205,2098.038,1152.759z"/>
<path style="fill:#F18614;" d="M1940.784,1029.897c-1.835-0.717-3.729-1.424-5.593-2.136c-4.209-1.609-8.475-3.207-12.827-4.789
	c-2.164-0.787-4.348-1.571-6.547-2.351c-4.407-1.564-8.894-3.112-13.439-4.649c-2.036-0.689-4.047-1.384-6.11-2.067
	c-6.427-2.128-12.955-4.235-19.641-6.308c-0.166-0.052-0.323-0.104-0.489-0.155c-6.857-2.123-13.884-4.209-21.007-6.273
	c-2.215-0.641-4.483-1.271-6.722-1.907c-5.041-1.431-10.132-2.85-15.3-4.251c-2.606-0.706-5.231-1.409-7.869-2.108
	c-5.159-1.367-10.387-2.715-15.666-4.053c-2.478-0.628-4.935-1.262-7.44-1.883c-7.149-1.773-14.391-3.521-21.748-5.239
	c-0.604-0.141-1.188-0.288-1.794-0.429c-7.91-1.838-15.968-3.635-24.113-5.407c-2.661-0.579-5.374-1.144-8.061-1.717
	c-5.648-1.203-11.336-2.393-17.091-3.565c-3.136-0.638-6.291-1.271-9.457-1.899c-5.634-1.118-11.325-2.218-17.056-3.306
	c-3.048-0.578-6.079-1.164-9.153-1.733c-7.404-1.372-14.891-2.716-22.449-4.037c-1.374-0.24-2.716-0.491-4.095-0.729
	c-7.865-1.36-15.81-2.691-23.836-3.994c-0.018-0.065-0.036-0.126-0.055-0.191c-0.628-2.182-1.25-4.322-1.862-6.407
	c-0.017-0.056-0.033-0.111-0.049-0.167c-4.446-15.133-8.386-27.461-10.292-33.25c-21.483,10.234-43.265,19.942-65.816,28.583
	c-5.197,1.983-10.43,3.917-15.701,5.783c-27.659,9.76-55.679,18.44-83.987,26.037c-104.01,27.931-211.919,41.36-319.551,40.994
	c-181.037-0.638-360.69-39.505-529.454-105.663c0,0-0.001,0-0.001-0.001c-1.323,5.001-2.522,10.031-3.668,15.071
	c-0.621,2.735-1.248,5.469-1.817,8.213c-3.574,17.098-24.602,113.679-9.76,124.512c0.508,0.363,182.952,133.346,459.238,152.349
	c114.32,27.863,232.288,40.81,349.921,38.409c71.291-1.46,142.481-8.549,212.62-21.376
	c128.728-23.546,264.421-73.965,332.158-185.919c0.994-1.643,1.973-3.302,2.926-4.985
	C1952.509,1034.539,1946.699,1032.208,1940.784,1029.897z"/>
<path style="fill:#E84531;" d="M601.266,1058.425c0.508,0.363,182.952,133.346,459.238,152.349
	c170.203,11.707,376.036-19.867,596.883-152.362c11.168-6.722-2.365-62.608-14.109-103.5c-0.018-0.065-0.036-0.126-0.055-0.191
	c-0.628-2.182-1.25-4.322-1.862-6.407c-0.017-0.056-0.033-0.111-0.049-0.167c-4.446-15.133-8.386-27.461-10.292-33.25
	c-21.483,10.234-43.265,19.942-65.816,28.583c-5.197,1.983-10.43,3.917-15.701,5.783c-27.659,9.76-55.679,18.44-83.987,26.037
	c-104.01,27.931-211.919,41.36-319.551,40.994c-181.037-0.638-360.69-39.505-529.454-105.663c0,0-0.001,0-0.001-0.001
	c-1.323,5.001-2.522,10.031-3.668,15.071c-0.621,2.735-1.248,5.469-1.817,8.213C607.452,951.01,586.424,1047.591,601.266,1058.425z"
	/>
<path style="fill:#F18614;" d="M804.315,721.509c20.871-13.589,37.069-35.205,56.218-51.385
	c22.41-18.937,46.562-35.786,71.929-50.524c50.095-29.104,103.131-45.157,158.056-62.056c9.384-2.886,8.258-18.979-2.428-17.945
	c-57.349,5.537-114.122,29.028-163.85,57.343c-24.76,14.096-48.284,30.249-70.5,48.079c-21.698,17.417-49.838,38.129-62.65,63.262
	C786.971,716.37,795.711,727.114,804.315,721.509z"/>
<path style="fill:#F18614;" d="M714.54,851.27c10.226-10.606,11.88-29.648,18.38-42.935c8.096-16.538,19.092-31.351,31.014-45.314
	c6.348-7.431-3.303-17.145-10.729-10.726c-15.156,13.094-27.083,28.894-36.189,46.743c-6.966,13.652-18.255,34.282-12.838,49.495
	C705.69,852.77,711.106,854.832,714.54,851.27z"/>
<path style="fill:#F18614;" d="M1503.476,827.366c8.515,7.489,16.967,16.253,28.078,19.437c3.564,1.023,8.164-2.693,6.568-6.573
	c-4.417-10.747-13.35-17.987-21.787-25.723c-8.828-8.093-17.883-17.82-28.548-23.425c-6.291-3.305-14.858,3.711-10.378,10.381
	C1484.18,811.551,1494.406,819.388,1503.476,827.366z"/>
<path style="fill:#F18614;" d="M1424.424,866.097c17.333,5.262,35.373,11.846,53.675,11.945c6.123,0.031,8.583-8.593,3.15-11.629
	c-15.962-8.926-34.834-12.089-52.492-16.049C1418.536,848.073,1414.334,863.035,1424.424,866.097z"/>
<path style="fill:#F18614;" d="M343.868,1067.243c62.802-25.654,127.267-39.937,193.434-53.515
	c8.253-1.693,6.51-15.417-2.004-14.821c-89.895,6.314-180.168,37.498-260.078,78.092c-32.217,16.365-75.686,35.679-90.099,71.738
	c-9.562,23.922-5.296,52.547,18.584,65.568c7.536,4.113,15.072-5.553,9.143-11.849
	C154.333,1140.341,303.884,1083.574,343.868,1067.243z"/>
<path style="fill:#F18614;" d="M810.077,920.091c7.034-3.279,13.335-8.526,19.631-13.024c6.107-4.36,12.576-8.57,17.37-14.421
	c3.37-4.119,0.371-12.328-5.835-10.022c-7.531,2.8-13.837,7.518-20.322,12.152c-6.437,4.597-13.549,8.968-19.045,14.683
	C796.313,915.239,803.289,923.257,810.077,920.091z"/>
<path style="fill:#F18614;" d="M904.85,914.438c-15.507,1.879-30.542,5.15-45.694,8.899c-8.326,2.062-4.794,14.68,3.538,12.822
	c14.737-3.289,29.239-6.877,43.48-11.948C911.062,922.472,910.795,913.716,904.85,914.438z"/>
<path style="fill:#F18614;" d="M1213.635,668.502c18.27-5.372,36.546-14.293,53.298-23.276c6.066-3.252,1.9-13.837-4.773-11.333
	c-17.83,6.696-36.619,14.489-52.707,24.694C1204.393,661.795,1207.549,670.289,1213.635,668.502z"/>
<path style="fill:#F18614;" d="M1278.761,695.768c11.828-8.089,20.934-20.314,30.349-30.974c5.034-5.705-2.957-13.905-8.421-8.423
	c-10.012,10.054-21.777,19.953-29.072,32.256C1269.063,692.932,1274.339,698.793,1278.761,695.768z"/>
<path style="fill:#F18614;" d="M773.212,1350.235c-80.831-5.932-160.725-13.076-240.002-30.93
	c-37.273-8.392-74.231-18.393-110.693-29.794c-36.865-11.527-75.315-32.162-113.185-38.215c-6.416-1.026-9.949,6.628-4.432,10.509
	c30.207,21.238,73.52,30.815,108.584,41.732c39.701,12.362,79.926,22.701,120.6,31.323c78.172,16.569,159.061,29.153,239.128,29.734
	C782.543,1364.658,782.329,1350.905,773.212,1350.235z"/>
<path style="fill:#F18614;" d="M1062.472,1369.782c-69.742-9.19-141.586-12.605-211.893-14.125c-7.578-0.162-7.28,10.868,0,11.585
	c69.925,6.895,141.613,12.162,211.893,11.351C1068.317,1378.525,1067.92,1370.502,1062.472,1369.782z"/>
<path style="fill:#F18614;" d="M1641.629,1335.15c42.04,0.024,86.619-13.924,127.105-24.409
	c44.421-11.503,88.262-25.251,131.297-41.177c46.719-17.289,170.433-48.76,149.254-120.592c-1.979-6.712-12.21-5.474-12.257,1.659
	c-0.309,46.777-42.125,63.218-79.11,79.125c-35.509,15.271-71.725,28.922-108.416,41.072
	c-34.227,11.331-68.915,21.285-103.937,29.857c-34.598,8.471-71.782,12.071-105.423,23.49
	C1634.339,1326.145,1635.087,1335.147,1641.629,1335.15z"/>
<path style="fill:#F18614;" d="M510.748,1087.363c-50.77,18.827-103.1,37.615-151.237,62.576c-5.448,2.824-1.69,11.72,4.182,9.915
	c51.796-15.941,102.288-39.28,151.708-61.459C521.581,1095.621,517.17,1084.982,510.748,1087.363z"/>
<path style="fill:#F18614;" d="M453.541,1204.525c29.611-24.708,59.191-48.598,92.256-68.63c6.343-3.847,0.727-13.413-5.804-9.933
	c-34.698,18.487-67.716,41.577-93.836,71.18C441.666,1202.235,448.407,1208.811,453.541,1204.525z"/>
</svg>
